<?xml version="1.0" encoding="UTF-8" standalone="no"?>
<!-- Generator: Gravit.io -->
<svg xmlns="http://www.w3.org/2000/svg" xmlns:xlink="http://www.w3.org/1999/xlink" style="isolation:isolate" viewBox="0 0 2048 2048" width="2048pt" height="2048pt"><defs><clipPath id="_clipPath_RdyiEaHiZfmRs5XufOsrtIwAOvD3DTCn"><rect width="2048" height="2048"/></clipPath></defs><g clip-path="url(#_clipPath_RdyiEaHiZfmRs5XufOsrtIwAOvD3DTCn)"><rect width="2048" height="2048" style="fill:rgb(30,30,45)"/><path d=" M 767.117 885.372 L 767.117 635.077 L 517.438 635.077 L 517.438 1662.602 L 684.948 1662.602 L 684.948 1662.602 L 1530.563 1662.602 L 1530.563 1412.923 L 767.117 1412.923 L 767.117 1135.051 L 1530.563 1412.923 L 1530.563 1163.243 L 767.117 885.372 L 767.117 885.372 Z  M 767.117 385.398 L 1530.563 385.398 L 1530.563 635.077 L 1530.563 635.077 L 767.117 635.077 L 767.117 385.398 L 767.117 385.398 Z  M 1530.563 635.077 L 1530.563 635.077 L 1148.84 774.013 L 1148.84 1023.692 L 1530.563 884.757 L 1530.563 635.077 Z " fill-rule="evenodd" fill="rgb(50,255,170)"/></g></svg>