<?xml version="1.0" encoding="UTF-8" standalone="no"?>
<!-- Generator: Gravit.io -->
<svg xmlns="http://www.w3.org/2000/svg" xmlns:xlink="http://www.w3.org/1999/xlink" style="isolation:isolate" viewBox="0 0 2306.752 382.001" width="2306.752pt" height="382.001pt"><defs><clipPath id="_clipPath_L147j6b2DF9j87GoCHtbGsmAxLPwSRne"><rect width="2306.752" height="382.001"/></clipPath></defs><g clip-path="url(#_clipPath_L147j6b2DF9j87GoCHtbGsmAxLPwSRne)"><g><path d=" M 74.677 149.538 L 74.677 74.677 L 0 74.677 L 0 382.001 L 50.101 382.001 L 50.101 382.001 L 303.018 382.001 L 303.018 307.324 L 74.677 307.324 L 74.677 224.215 L 303.018 307.324 L 303.018 232.647 L 74.677 149.538 L 74.677 149.538 Z  M 74.677 0 L 303.018 0 L 303.018 74.677 L 303.018 74.677 L 74.677 74.677 L 74.677 0 L 74.677 0 Z  M 303.018 74.677 L 303.018 74.677 L 188.847 116.232 L 188.847 190.909 L 303.018 149.354 L 303.018 74.677 Z " fill-rule="evenodd" fill="rgb(50,255,170)"/><path d=" M 466.712 333.351 L 466.712 282.105 L 493.555 282.105 L 493.555 99.896 L 466.712 99.896 L 466.712 48.65 L 591.574 48.65 L 591.574 48.65 Q 611.91 48.65 627.568 54.344 L 627.568 54.344 L 627.568 54.344 Q 643.227 60.038 654.005 69.799 L 654.005 69.799 L 654.005 69.799 Q 664.783 79.56 670.274 93.185 L 670.274 93.185 L 670.274 93.185 Q 675.764 106.81 675.764 122.672 L 675.764 122.672 L 675.764 127.553 L 675.764 127.553 Q 675.764 151.956 662.139 166.598 L 662.139 166.598 L 662.139 166.598 Q 648.514 181.239 627.772 186.934 L 627.772 186.934 L 627.772 194.254 L 627.772 194.254 Q 648.514 199.948 662.139 214.794 L 662.139 214.794 L 662.139 214.794 Q 675.764 229.639 675.764 254.042 L 675.764 254.042 L 675.764 258.922 L 675.764 258.922 Q 675.764 274.784 670.274 288.409 L 670.274 288.409 L 670.274 288.409 Q 664.783 302.034 654.005 311.999 L 654.005 311.999 L 654.005 311.999 Q 643.227 321.963 627.568 327.657 L 627.568 327.657 L 627.568 327.657 Q 611.91 333.351 591.574 333.351 L 591.574 333.351 L 466.712 333.351 Z  M 547.242 216.217 L 547.242 282.105 L 586.287 282.105 L 586.287 282.105 Q 603.369 282.105 613.943 274.784 L 613.943 274.784 L 613.943 274.784 Q 624.518 267.463 624.518 250.381 L 624.518 250.381 L 624.518 247.941 L 624.518 247.941 Q 624.518 230.859 613.943 223.538 L 613.943 223.538 L 613.943 223.538 Q 603.369 216.217 586.287 216.217 L 586.287 216.217 L 547.242 216.217 Z  M 547.242 99.896 L 547.242 164.971 L 586.287 164.971 L 586.287 164.971 Q 603.369 164.971 613.943 157.853 L 613.943 157.853 L 613.943 157.853 Q 624.518 150.736 624.518 133.654 L 624.518 133.654 L 624.518 131.213 L 624.518 131.213 Q 624.518 114.131 613.943 107.014 L 613.943 107.014 L 613.943 107.014 Q 603.369 99.896 586.287 99.896 L 586.287 99.896 L 547.242 99.896 Z  M 714.875 333.351 L 714.875 48.65 L 894.644 48.65 L 894.644 99.896 L 768.562 99.896 L 768.562 164.971 L 889.763 164.971 L 889.763 216.217 L 768.562 216.217 L 768.562 282.105 L 899.524 282.105 L 899.524 333.351 L 714.875 333.351 Z  M 937.008 99.896 L 937.008 48.65 L 1141.993 48.65 L 1141.993 99.896 L 1066.344 99.896 L 1066.344 333.351 L 1012.657 333.351 L 1012.657 99.896 L 937.008 99.896 Z  M 1335.249 333.351 L 1321.421 272.344 L 1224.622 272.344 L 1210.794 333.351 L 1154.667 333.351 L 1222.589 48.65 L 1323.455 48.65 L 1391.376 333.351 L 1335.249 333.351 Z  M 1269.361 75.493 L 1236.011 221.098 L 1309.626 221.098 L 1276.682 75.493 L 1269.361 75.493 Z  M 1555.349 145.448 L 1555.349 135.687 L 1555.349 135.687 Q 1555.349 118.605 1542.13 105.997 L 1542.13 105.997 L 1542.13 105.997 Q 1528.912 93.389 1504.916 93.389 L 1504.916 93.389 L 1504.916 93.389 Q 1484.58 93.389 1472.785 101.726 L 1472.785 101.726 L 1472.785 101.726 Q 1460.991 110.064 1460.991 124.299 L 1460.991 124.299 L 1460.991 124.299 Q 1460.991 131.62 1463.838 137.517 L 1463.838 137.517 L 1463.838 137.517 Q 1466.685 143.415 1473.802 148.092 L 1473.802 148.092 L 1473.802 148.092 Q 1480.92 152.769 1492.511 156.43 L 1492.511 156.43 L 1492.511 156.43 Q 1504.103 160.09 1521.998 163.344 L 1521.998 163.344 L 1521.998 163.344 Q 1566.737 171.478 1590.326 190.594 L 1590.326 190.594 L 1590.326 190.594 Q 1613.916 209.71 1613.916 247.128 L 1613.916 247.128 L 1613.916 252.008 L 1613.916 252.008 Q 1613.916 271.937 1606.798 288.003 L 1606.798 288.003 L 1606.798 288.003 Q 1599.681 304.068 1586.259 315.456 L 1586.259 315.456 L 1586.259 315.456 Q 1572.838 326.844 1553.722 332.945 L 1553.722 332.945 L 1553.722 332.945 Q 1534.606 339.045 1510.61 339.045 L 1510.61 339.045 L 1510.61 339.045 Q 1482.547 339.045 1461.194 331.114 L 1461.194 331.114 L 1461.194 331.114 Q 1439.841 323.184 1425.606 309.152 L 1425.606 309.152 L 1425.606 309.152 Q 1411.371 295.12 1404.05 276.208 L 1404.05 276.208 L 1404.05 276.208 Q 1396.729 257.295 1396.729 234.926 L 1396.729 234.926 L 1396.729 222.725 L 1450.416 222.725 L 1450.416 232.486 L 1450.416 232.486 Q 1450.416 258.109 1465.261 273.361 L 1465.261 273.361 L 1465.261 273.361 Q 1480.106 288.613 1511.423 288.613 L 1511.423 288.613 L 1511.423 288.613 Q 1535.826 288.613 1547.621 278.038 L 1547.621 278.038 L 1547.621 278.038 Q 1559.416 267.463 1559.416 252.822 L 1559.416 252.822 L 1559.416 252.822 Q 1559.416 245.907 1556.976 239.603 L 1556.976 239.603 L 1556.976 239.603 Q 1554.535 233.299 1548.435 228.215 L 1548.435 228.215 L 1548.435 228.215 Q 1542.334 223.131 1531.759 219.064 L 1531.759 219.064 L 1531.759 219.064 Q 1521.185 214.997 1504.916 212.15 L 1504.916 212.15 L 1504.916 212.15 Q 1483.36 208.49 1465.464 202.592 L 1465.464 202.592 L 1465.464 202.592 Q 1447.569 196.695 1434.351 186.934 L 1434.351 186.934 L 1434.351 186.934 Q 1421.132 177.172 1413.812 162.531 L 1413.812 162.531 L 1413.812 162.531 Q 1406.491 147.889 1406.491 126.74 L 1406.491 126.74 L 1406.491 124.299 L 1406.491 124.299 Q 1406.491 106.81 1413.608 91.965 L 1413.608 91.965 L 1413.608 91.965 Q 1420.726 77.12 1433.537 66.139 L 1433.537 66.139 L 1433.537 66.139 Q 1446.349 55.157 1464.448 49.057 L 1464.448 49.057 L 1464.448 49.057 Q 1482.547 42.956 1504.916 42.956 L 1504.916 42.956 L 1504.916 42.956 Q 1530.132 42.956 1549.655 50.074 L 1549.655 50.074 L 1549.655 50.074 Q 1569.177 57.191 1582.395 69.393 L 1582.395 69.393 L 1582.395 69.393 Q 1595.614 81.594 1602.325 97.456 L 1602.325 97.456 L 1602.325 97.456 Q 1609.035 113.318 1609.035 130.807 L 1609.035 130.807 L 1609.035 145.448 L 1555.349 145.448 Z  M 1644.892 99.896 L 1644.892 48.65 L 1835.236 48.65 L 1835.236 99.896 L 1766.907 99.896 L 1766.907 282.105 L 1835.236 282.105 L 1835.236 333.351 L 1644.892 333.351 L 1644.892 282.105 L 1713.221 282.105 L 1713.221 99.896 L 1644.892 99.896 Z  M 1954.876 240.62 L 1954.876 189.374 L 2076.891 189.374 L 2076.891 333.351 L 2028.085 333.351 L 2028.085 301.628 L 2020.764 301.628 L 2020.764 301.628 Q 2015.884 317.489 2002.055 328.267 L 2002.055 328.267 L 2002.055 328.267 Q 1988.227 339.045 1960.57 339.045 L 1960.57 339.045 L 1960.57 339.045 Q 1941.048 339.045 1923.966 331.725 L 1923.966 331.725 L 1923.966 331.725 Q 1906.884 324.404 1894.275 309.965 L 1894.275 309.965 L 1894.275 309.965 Q 1881.667 295.527 1874.346 274.174 L 1874.346 274.174 L 1874.346 274.174 Q 1867.025 252.822 1867.025 224.351 L 1867.025 224.351 L 1867.025 157.65 L 1867.025 157.65 Q 1867.025 129.993 1874.956 108.641 L 1874.956 108.641 L 1874.956 108.641 Q 1882.887 87.288 1896.919 72.646 L 1896.919 72.646 L 1896.919 72.646 Q 1910.951 58.004 1930.473 50.48 L 1930.473 50.48 L 1930.473 50.48 Q 1949.996 42.956 1973.585 42.956 L 1973.585 42.956 L 1973.585 42.956 Q 1997.988 42.956 2017.104 50.887 L 2017.104 50.887 L 2017.104 50.887 Q 2036.219 58.818 2049.641 72.85 L 2049.641 72.85 L 2049.641 72.85 Q 2063.063 86.881 2069.977 105.794 L 2069.977 105.794 L 2069.977 105.794 Q 2076.891 124.706 2076.891 146.262 L 2076.891 146.262 L 2076.891 151.143 L 2023.204 151.143 L 2023.204 146.262 L 2023.204 146.262 Q 2023.204 120.639 2009.986 107.42 L 2009.986 107.42 L 2009.986 107.42 Q 1996.768 94.202 1972.772 94.202 L 1972.772 94.202 L 1972.772 94.202 Q 1949.996 94.202 1935.354 109.454 L 1935.354 109.454 L 1935.354 109.454 Q 1920.712 124.706 1920.712 161.717 L 1920.712 161.717 L 1920.712 221.911 L 1920.712 221.911 Q 1920.712 287.799 1974.399 287.799 L 1974.399 287.799 L 1974.399 287.799 Q 1998.395 287.799 2010.8 274.988 L 2010.8 274.988 L 2010.8 274.988 Q 2023.204 262.176 2023.204 240.62 L 2023.204 240.62 L 1954.876 240.62 Z  M 2212.394 48.65 L 2245.744 306.508 L 2253.065 306.508 L 2253.065 48.65 L 2306.752 48.65 L 2306.752 333.351 L 2201.819 333.351 L 2168.468 75.493 L 2161.147 75.493 L 2161.147 333.351 L 2107.461 333.351 L 2107.461 48.65 L 2212.394 48.65 Z " fill="rgb(50,255,170)"/></g></g></svg>