<svg width="1440" height="306" viewBox="0 0 1440 306" fill="none" xmlns="http://www.w3.org/2000/svg">
<path fill-rule="evenodd" clip-rule="evenodd" d="M0 306L40 264.917C80 224.542 160 143.083 240 137.417C320 132.458 400 204 480 229.5C560 255 640 234.458 720 188.417C800 143.083 880 71.5417 960 46.0417C1040 20.5417 1120 41.0833 1200 66.5833C1280 92.0833 1360 122.542 1400 137.417L1440 153V0H1400C1360 0 1280 0 1200 0C1120 0 1040 0 960 0C880 0 800 0 720 0C640 0 560 0 480 0C400 0 320 0 240 0C160 0 80 0 40 0H0V306Z" fill="#002944"/>
</svg>
